<?xml version="1.0" encoding="UTF-8"?>
<svg id="_圖層_1" data-name="圖層_1" xmlns="http://www.w3.org/2000/svg" version="1.1" viewBox="0 0 240 234">
  <!-- Generator: Adobe Illustrator 30.1.0, SVG Export Plug-In . SVG Version: 2.1.1 Build 136)  -->
  <defs>
    <style>
      .st0 {
        fill: #231815;
      }
    </style>
  </defs>
  <path class="st0" d="M197.54,6c4.81,0,9.5.93,13.94,2.77,4.45,1.84,8.44,4.5,11.84,7.91,3.41,3.41,6.07,7.39,7.91,11.84,1.84,4.45,2.77,9.15,2.77,13.98v149.01c0,4.82-.93,9.52-2.77,13.97-1.84,4.45-4.5,8.44-7.91,11.84-3.41,3.41-7.39,6.07-11.85,7.91-4.44,1.84-9.13,2.77-13.98,2.77H42.46c-4.81,0-9.5-.93-13.94-2.77-4.45-1.84-8.44-4.5-11.84-7.91-3.41-3.41-6.07-7.39-7.91-11.85-1.84-4.45-2.77-9.15-2.77-13.98V42.49c0-4.82.93-9.52,2.77-13.97,1.84-4.45,4.5-8.44,7.91-11.84,3.41-3.41,7.39-6.07,11.84-7.91,4.44-1.84,9.13-2.77,13.98-2.77h155.04M197.54,0s-.03,0-.04,0H42.5s-.03,0-.04,0c-5.57,0-11.08,1.1-16.23,3.22-5.16,2.13-9.85,5.26-13.79,9.21-3.95,3.95-7.08,8.63-9.21,13.79C1.09,31.39,0,36.92,0,42.5v149c0,5.58,1.09,11.11,3.22,16.27,2.13,5.16,5.26,9.85,9.21,13.79,3.95,3.95,8.63,7.08,13.79,9.21,5.15,2.13,10.66,3.22,16.23,3.22.01,0,.03,0,.04,0h155s.03,0,.04,0c5.57,0,11.09-1.09,16.23-3.22,5.16-2.13,9.85-5.27,13.79-9.21,3.95-3.95,7.08-8.64,9.21-13.79,2.13-5.16,3.23-10.69,3.22-16.27V42.5c0-5.58-1.09-11.11-3.22-16.27-2.13-5.16-5.26-9.85-9.21-13.79-3.95-3.95-8.63-7.08-13.79-9.21-5.15-2.13-10.66-3.22-16.23-3.22h0Z"/>
  <path class="st0" d="M96.4,140h-37.2l-7.6,23.6c-.08.43-.33.81-.68,1.07-.35.26-.79.38-1.22.33h-18.8c-1.1,0-1.4-.6-1.1-1.8l32.2-92.3c.3-1,.6-1.9,1-3.1.4-2.14.6-4.32.6-6.5-.03-.25.04-.5.18-.71.15-.2.37-.34.62-.39h25.9c.7,0,1.2.3,1.3.8l36.5,102.5c.3,1.1,0,1.6-1,1.6h-20.9c-.35.03-.71-.06-1-.26-.29-.2-.5-.5-.6-.84l-8.2-24ZM65,120.1h25.4c-.6-2.1-1.4-4.6-2.3-7.2s-1.8-5.6-2.7-8.6-1.9-6.1-2.9-9.2-1.9-6-2.7-8.9c-.8-2.9-1.5-5.4-2.2-7.8h-.2c-.9,4.36-2.03,8.66-3.4,12.9-1.5,4.8-3,9.8-4.6,14.8-1.3,5.1-2.9,9.8-4.4,14Z"/>
  <path class="st0" d="M187.4,130.8h-31.7c.38,3.16,1.44,6.19,3.1,8.9,1.77,2.7,4.31,4.79,7.3,6,4.04,1.73,8.4,2.58,12.8,2.5,3.49-.06,6.97-.43,10.4-1.1,3.05-.4,6.04-1.17,8.9-2.3.5-.4.8-.2.8.8v15.3c-.02.41-.09.81-.2,1.2-.18.28-.42.52-.7.7-3.2,1.4-6.56,2.41-10,3-4.68.9-9.44,1.3-14.2,1.2-7.6,0-14-1.2-19.2-3.5-4.89-2.12-9.21-5.38-12.6-9.5-3.17-3.85-5.51-8.31-6.9-13.1-2.93-9.98-2.79-20.6.4-30.5,1.6-5.01,4.14-9.66,7.5-13.7,3.31-4,7.43-7.24,12.1-9.5,4.7-2.3,10.3-3.1,16.7-3.1,5.33-.12,10.63.93,15.5,3.1,4.1,1.78,7.7,4.52,10.5,8,2.66,3.42,4.69,7.28,6,11.4,1.27,3.94,1.91,8.06,1.9,12.2,0,2.4-.1,4.5-.2,6.4-.1,1.9-.3,3.3-.4,4.2-.04.35-.21.67-.46.9-.26.24-.59.38-.94.4-.6,0-1.7.1-3.3.2-1.93.22-3.86.32-5.8.3-2.3,0-4.7-.4-7.3-.4ZM155.7,116.2h21.1c2.6,0,4.5,0,5.7-.1.82-.07,1.61-.34,2.3-.8v-1c0-1.26-.2-2.51-.6-3.7-.88-2.74-2.62-5.11-4.96-6.77-2.35-1.66-5.17-2.51-8.04-2.43-2.71-.15-5.41.48-7.77,1.83s-4.28,3.35-5.53,5.77c-1.17,2.25-1.91,4.69-2.2,7.2Z"/>
</svg>