<?xml version="1.0" encoding="UTF-8"?>
<svg id="_圖層_1" data-name="圖層_1" xmlns="http://www.w3.org/2000/svg" version="1.1" viewBox="0 0 240 234">
  <!-- Generator: Adobe Illustrator 30.1.0, SVG Export Plug-In . SVG Version: 2.1.1 Build 136)  -->
  <defs>
    <style>
      .st0 {
        fill: #231815;
      }
    </style>
  </defs>
  <path class="st0" d="M197.54,6c4.81,0,9.5.93,13.94,2.77,4.45,1.84,8.44,4.5,11.84,7.91,3.41,3.41,6.07,7.39,7.91,11.84,1.84,4.45,2.77,9.15,2.77,13.98v149.01c0,4.82-.93,9.52-2.77,13.97-1.84,4.45-4.5,8.44-7.91,11.84-3.41,3.41-7.39,6.07-11.85,7.91-4.44,1.84-9.13,2.77-13.98,2.77H42.46c-4.81,0-9.5-.93-13.94-2.77-4.45-1.84-8.44-4.5-11.84-7.91-3.41-3.41-6.07-7.39-7.91-11.85-1.84-4.45-2.77-9.15-2.77-13.98V42.49c0-4.82.93-9.52,2.77-13.97,1.84-4.45,4.5-8.44,7.91-11.84,3.41-3.41,7.39-6.07,11.84-7.91,4.44-1.84,9.13-2.77,13.98-2.77h155.04M197.54,0s-.03,0-.04,0H42.5s-.03,0-.04,0c-5.57,0-11.08,1.1-16.23,3.22-5.16,2.13-9.85,5.26-13.79,9.21-3.95,3.95-7.08,8.63-9.21,13.79C1.09,31.39,0,36.92,0,42.5v149c0,5.58,1.09,11.11,3.22,16.27,2.13,5.16,5.26,9.85,9.21,13.79,3.95,3.95,8.63,7.08,13.79,9.21,5.15,2.13,10.66,3.22,16.23,3.22.01,0,.03,0,.04,0h155s.03,0,.04,0c5.57,0,11.09-1.09,16.23-3.22,5.16-2.13,9.85-5.27,13.79-9.21,3.95-3.95,7.08-8.64,9.21-13.79,2.13-5.16,3.23-10.69,3.22-16.27V42.5c0-5.58-1.09-11.11-3.22-16.27-2.13-5.16-5.26-9.85-9.21-13.79-3.95-3.95-8.64-7.08-13.79-9.21-5.15-2.13-10.66-3.22-16.23-3.22h0Z"/>
  <path class="st0" d="M116.3,140.4h-37.2l-7.6,23.5c-.08.43-.33.81-.68,1.07-.35.26-.79.38-1.22.33h-18.8c-1.1,0-1.4-.6-1.1-1.8l32.2-92.7c.3-1,.6-2.1,1-3.3.4-2.14.6-4.32.6-6.5-.03-.25.04-.5.18-.71.15-.2.37-.34.62-.39h25.9c.8,0,1.2.3,1.3.8l36.5,103c.3,1.1,0,1.6-1,1.6h-20.9c-.35.03-.71-.06-1-.26-.29-.2-.5-.5-.6-.84l-8.2-23.8ZM84.9,120.1h25.4c-.6-2.1-1.4-4.6-2.3-7.2s-1.8-5.6-2.7-8.6c-.9-3-1.9-6.1-2.9-9.2s-1.9-6-2.7-8.9c-.8-2.9-1.5-5.4-2.2-7.8h-.2c-.9,4.36-2.03,8.66-3.4,12.9-1.5,4.8-3,9.8-4.6,14.8-1.4,5.1-2.9,9.8-4.4,14Z"/>
  <path class="st0" d="M169.8,77c-1.64.04-3.27-.25-4.8-.86-1.53-.6-2.92-1.5-4.1-2.64-2.29-2.51-3.51-5.81-3.4-9.2-.06-1.65.23-3.3.85-4.83.62-1.53,1.56-2.92,2.75-4.07,2.4-2.27,5.59-3.53,8.9-3.5,3.9,0,6.9,1.2,9.1,3.5,2.21,2.42,3.4,5.62,3.3,8.9.06,1.69-.22,3.37-.82,4.95-.6,1.58-1.51,3.02-2.68,4.25-1.18,1.2-2.6,2.13-4.17,2.74-1.57.6-3.25.86-4.93.76ZM158.6,163.8v-77c0-1,.4-1.4,1.3-1.4h19.8c.9,0,1.3.5,1.3,1.4v77c0,1.1-.4,1.6-1.3,1.6h-19.6c-.21.02-.42-.01-.62-.09-.2-.08-.37-.2-.52-.35-.15-.15-.25-.34-.32-.54-.06-.2-.08-.41-.05-.62Z"/>
</svg>