<?xml version="1.0" encoding="UTF-8"?>
<svg id="_圖層_1" data-name="圖層_1" xmlns="http://www.w3.org/2000/svg" version="1.1" viewBox="0 0 240 234">
  <!-- Generator: Adobe Illustrator 30.1.0, SVG Export Plug-In . SVG Version: 2.1.1 Build 136)  -->
  <defs>
    <style>
      .st0 {
        fill: #231815;
      }
    </style>
  </defs>
  <path class="st0" d="M197.54,6c4.81,0,9.5.93,13.94,2.77,4.45,1.84,8.44,4.5,11.84,7.91,3.41,3.41,6.07,7.39,7.91,11.84,1.84,4.45,2.77,9.15,2.77,13.98v149.01c0,4.82-.93,9.52-2.77,13.97-1.84,4.45-4.5,8.44-7.91,11.84-3.41,3.41-7.39,6.07-11.85,7.91-4.44,1.84-9.13,2.77-13.98,2.77H42.46c-4.81,0-9.5-.93-13.94-2.77-4.45-1.84-8.44-4.5-11.84-7.91-3.41-3.41-6.07-7.39-7.91-11.85-1.84-4.45-2.77-9.15-2.77-13.98V42.49c0-4.82.93-9.52,2.77-13.97,1.84-4.45,4.5-8.44,7.91-11.84,3.41-3.41,7.39-6.07,11.84-7.91,4.44-1.84,9.13-2.77,13.98-2.77h155.04M197.54,0s-.03,0-.04,0H42.5s-.03,0-.04,0c-5.57,0-11.08,1.1-16.23,3.22-5.16,2.13-9.85,5.26-13.79,9.21-3.95,3.95-7.08,8.63-9.21,13.79C1.09,31.39,0,36.92,0,42.5v149c0,5.58,1.09,11.11,3.22,16.27,2.13,5.16,5.26,9.85,9.21,13.79,3.95,3.95,8.63,7.08,13.79,9.21,5.15,2.13,10.66,3.22,16.23,3.22.01,0,.03,0,.04,0h155s.03,0,.04,0c5.57,0,11.09-1.09,16.23-3.22,5.16-2.13,9.85-5.27,13.79-9.21,3.95-3.95,7.08-8.64,9.21-13.79,2.13-5.16,3.23-10.69,3.22-16.27V42.5c0-5.58-1.09-11.11-3.22-16.27-2.13-5.16-5.26-9.85-9.21-13.79-3.95-3.95-8.64-7.08-13.79-9.21C208.62,1.1,203.11,0,197.54,0h0Z"/>
  <path class="st0" d="M54,164.1V61.2c0-.7.3-1.1,1-1.1,1.7,0,3.3,0,5.6-.1,2.3-.1,4.9-.1,7.6-.2,2.7-.1,5.6-.1,8.7-.2,3.1-.1,6.1-.1,9.1-.1,8.2,0,15,1,20.6,3.1,5.02,1.7,9.6,4.51,13.4,8.2,3.22,3.23,5.71,7.12,7.3,11.4,1.51,4.17,2.29,8.57,2.3,13,0,8.6-2,15.7-6,21.3-4.02,5.59-9.63,9.84-16.1,12.2-6.8,2.5-14.3,3.4-22.5,3.4-2.4,0-4,0-5-.1s-2.4-.1-4.3-.1v32.1c.02.16.01.33-.03.49-.04.16-.12.31-.22.44-.1.13-.23.24-.38.32-.15.08-.31.13-.47.15h-19.4c-.8,0-1.2-.4-1.2-1.3ZM75.8,79.4v33.6c1.4.1,2.7.2,3.9.2h5.3c3.9,0,7.78-.6,11.5-1.8,3.19-.94,6.04-2.78,8.2-5.3,2.1-2.5,3.1-5.9,3.1-10.3.09-3.12-.7-6.21-2.3-8.9-1.67-2.6-4.12-4.59-7-5.7-3.75-1.47-7.77-2.15-11.8-2-2.6,0-4.9,0-6.8.1-1.37-.09-2.74-.06-4.1.1Z"/>
  <path class="st0" d="M192,106.9c-3.02-1.59-6.25-2.74-9.6-3.4-3.68-.83-7.43-1.27-11.2-1.3-2.02-.07-4.05.17-6,.7-1.25.26-2.35.97-3.1,2-.51.81-.78,1.74-.8,2.7.05.95.4,1.86,1,2.6.95,1.11,2.1,2.03,3.4,2.7,2.3,1.2,4.7,2.3,7.1,3.3,5.4,1.82,10.57,4.27,15.4,7.3,3.28,2.07,6,4.92,7.9,8.3,1.61,3.19,2.4,6.73,2.3,10.3.08,4.73-1.28,9.37-3.9,13.3-2.79,3.99-6.68,7.09-11.2,8.9-4.9,2.1-10.9,3.2-18.1,3.2-4.57.02-9.12-.42-13.6-1.3-3.53-.61-6.96-1.69-10.2-3.2-.35-.18-.64-.45-.83-.79-.19-.34-.29-.73-.27-1.11v-17.4c0-.17.02-.34.09-.5.07-.16.17-.29.31-.4.14-.08.3-.12.47-.1.16.02.31.09.43.2,3.85,2.27,8.04,3.92,12.4,4.9,3.85,1,7.82,1.51,11.8,1.5,3.8,0,6.5-.5,8.3-1.4.8-.37,1.48-.96,1.96-1.71.48-.74.73-1.61.74-2.49,0-1.4-.8-2.7-2.4-4-1.6-1.3-4.9-2.8-9.8-4.7-5.03-1.77-9.8-4.19-14.2-7.2-3.13-2.23-5.73-5.14-7.6-8.5-1.6-3.16-2.39-6.66-2.3-10.2.01-4.27,1.19-8.45,3.4-12.1,2.54-4.01,6.19-7.21,10.5-9.2,4.7-2.4,10.6-3.5,17.7-3.5,4.15,0,8.29.3,12.4.9,2.95.4,5.84,1.17,8.6,2.3.44.16.8.48,1,.9.11.39.18.79.2,1.2v16.3c0,.19-.04.39-.13.56-.09.17-.21.33-.37.44-.58.21-1.22.21-1.8,0Z"/>
</svg>